<svg xmlns="http://www.w3.org/2000/svg" width="22" height="22" viewBox="0 0 22 22">
  <g id="cart" transform="translate(238 -955)">
    <rect id="Rectangle_2" data-name="Rectangle 2" width="22" height="22" transform="translate(-238 955)" fill="#fff"/>
    <g id="Cart-2" data-name="Cart" transform="translate(1409.327 353.441)">
      <path id="Path_6578" data-name="Path 6578" d="M-506.993,6134.392v-1.853l1.394-.771,1.427.771.131,1.509a11.415,11.415,0,0,1-.754.887c-.066.016-1.279.13-1.279.13Z" transform="translate(-1135 -5513.22)" fill="#fff"/>
      <path id="Path_6579" data-name="Path 6579" d="M-506.993,6134.392v-1.853l1.394-.771,1.427.771.131,1.509a11.415,11.415,0,0,1-.754.887c-.066.016-1.279.13-1.279.13Z" transform="translate(-1126 -5513.22)" fill="#fff"/>
      <path id="Path_6577" data-name="Path 6577" d="M4.376,3.7l2.755,7.82,10.677-1.312s1.2-.065,1.624-1.853,1.181-4.822,1.181-4.822Z" transform="translate(-1647.304 601.977)" fill="#fff"/>
      <path id="Path_5082" data-name="Path 5082" d="M7923.162,942.109a2.2,2.2,0,1,0,2.2,2.2A2.2,2.2,0,0,0,7923.162,942.109Zm0,3.419a1.221,1.221,0,1,1,1.223-1.222,1.221,1.221,0,0,1-1.223,1.222Z" transform="translate(-9563.75 -324.039)" fill="#1d1d1d"/>
      <path id="Path_5083" data-name="Path 5083" d="M7933.41,942.109a2.2,2.2,0,1,0,2.2,2.2A2.2,2.2,0,0,0,7933.41,942.109Zm0,3.419a1.221,1.221,0,1,1,1.221-1.222,1.221,1.221,0,0,1-1.221,1.222Z" transform="translate(-9564.719 -324.039)" fill="#1d1d1d"/>
      <path id="Path_5084" data-name="Path 5084" d="M7936.928,927.61a.607.607,0,0,0-.391-.2l-15.9-.22-.438-1.343a2.25,2.25,0,0,0-2.1-1.514h-1.635a.489.489,0,1,0,0,.977h1.635a1.271,1.271,0,0,1,1.173.855l3.1,9.353-.245.561a2.346,2.346,0,0,0,.22,2.124,2.271,2.271,0,0,0,1.832,1.026h9.5a.489.489,0,1,0,0-.977h-9.5a1.248,1.248,0,0,1-1.025-.586,1.346,1.346,0,0,1-.123-1.173l.195-.439,10.281-1.075a2.686,2.686,0,0,0,2.32-2.051l1.172-4.909a.413.413,0,0,0-.07-.409Zm-2.05,5.1a1.664,1.664,0,0,1-1.49,1.295l-10.161,1.05-2.271-6.887,14.969.22Z" transform="translate(-9563.279 -322.36)" fill="#1d1d1d"/>
    </g>
  </g>
</svg>
