<svg xmlns="http://www.w3.org/2000/svg" width="22" height="22" viewBox="0 0 22 22">
  <g id="category" transform="translate(176 -955)">
    <rect id="Rectangle_4" data-name="Rectangle 4" width="22" height="22" transform="translate(-176 955)" fill="#fff"/>
    <g id="Category-2" data-name="Category" transform="translate(1696.604 353.627)">
      <rect id="Rectangle_4742" data-name="Rectangle 4742" width="8" height="8" transform="translate(-1871 602.78)" fill="#fff"/>
      <rect id="Rectangle_4743" data-name="Rectangle 4743" width="8" height="8" transform="translate(-1871 613.78)" fill="#fff"/>
      <rect id="Rectangle_4744" data-name="Rectangle 4744" width="8" height="8" transform="translate(-1860 613.78)" fill="#fff"/>
      <rect id="Rectangle_4745" data-name="Rectangle 4745" width="8" height="8" rx="3" transform="translate(-1860 602.78)" fill="#fff"/>
      <g id="Rectangle_466" data-name="Rectangle 466" transform="translate(-1872 601.977)">
        <path id="Path_5078" data-name="Path 5078" d="M7699.371,936.232h-5.588a2.018,2.018,0,0,1-2.016-2.016v-5.588a2.017,2.017,0,0,1,2.016-2.015h5.588a2.017,2.017,0,0,1,2.016,2.015v5.588a2.016,2.016,0,0,1-2.015,2.016Zm-5.588-8.621a1.019,1.019,0,0,0-1.019,1.017v5.588a1.02,1.02,0,0,0,1.019,1.018h5.588a1.019,1.019,0,0,0,1.018-1.018v-5.588a1.019,1.019,0,0,0-1.018-1.017Z" transform="translate(-7691.768 -926.614)" fill="#1d1d1d"/>
      </g>
      <g id="Rectangle_467" data-name="Rectangle 467" transform="translate(-1872 613.152)">
        <path id="Path_5079" data-name="Path 5079" d="M7699.371,947.437h-5.588a2.018,2.018,0,0,1-2.016-2.016v-5.587a2.018,2.018,0,0,1,2.016-2.016h5.588a2.018,2.018,0,0,1,2.015,2.016v5.587a2.016,2.016,0,0,1-2.015,2.016Zm-5.588-8.621a1.02,1.02,0,0,0-1.019,1.018v5.587a1.02,1.02,0,0,0,1.019,1.018h5.588a1.019,1.019,0,0,0,1.018-1.018v-5.587a1.019,1.019,0,0,0-1.018-1.018Z" transform="translate(-7691.768 -937.819)" fill="#1d1d1d"/>
      </g>
      <g id="Rectangle_468" data-name="Rectangle 468" transform="translate(-1860.824 613.152)">
        <path id="Path_5080" data-name="Path 5080" d="M7710.576,947.437h-5.588a2.017,2.017,0,0,1-2.015-2.016v-5.587a2.017,2.017,0,0,1,2.015-2.016h5.588a2.018,2.018,0,0,1,2.016,2.016v5.587a2.017,2.017,0,0,1-2.015,2.016Zm-5.588-8.621a1.019,1.019,0,0,0-1.018,1.018v5.587a1.019,1.019,0,0,0,1.018,1.018h5.588a1.019,1.019,0,0,0,1.018-1.018v-5.587a1.019,1.019,0,0,0-1.018-1.018Z" transform="translate(-7702.974 -937.819)" fill="#1d1d1d"/>
      </g>
      <g id="Rectangle_469" data-name="Rectangle 469" transform="translate(-1860.824 601.977)">
        <path id="Path_5081" data-name="Path 5081" d="M7707.782,936.232a4.809,4.809,0,1,1,4.809-4.809,4.809,4.809,0,0,1-4.809,4.809Zm0-8.621a3.812,3.812,0,1,0,3.812,3.812A3.812,3.812,0,0,0,7707.782,927.611Z" transform="translate(-7702.974 -926.614)" fill="#1d1d1d"/>
      </g>
    </g>
  </g>
</svg>
