<svg xmlns="http://www.w3.org/2000/svg" width="22" height="22" viewBox="0 0 22 22">
  <g id="home" transform="translate(120 -955)">
    <rect id="Rectangle_6" data-name="Rectangle 6" width="22" height="22" transform="translate(-120 955)" fill="#fff"/>
    <g id="Home-2" data-name="Home" transform="translate(-120 955.751)">
      <path id="Path_6571" data-name="Path 6571" d="M1163.442,994.522v-9.271h-2.814l10.37-10.37L1181.12,985h-2.291v9.738h-15.353Z" transform="translate(-1160.148 -974.731)" fill="#fff"/>
      <path id="Path_6572" data-name="Path 6572" d="M1181.994,984.784l-9.648-9.585a1.766,1.766,0,0,0-2.418.01l-9.668,9.6a.457.457,0,0,0,.322.779h2.353v9.155a.456.456,0,0,0,.456.456h15.423a.456.456,0,0,0,.452-.461v-9.177h2.406a.457.457,0,0,0,.321-.78Zm-3.185-.127h0a.455.455,0,0,0-.454.456v9.176h-14.505v-9.152a.457.457,0,0,0-.456-.456h-1.7l8.871-8.813a.847.847,0,0,1,1.15-.01l8.856,8.8Z" transform="translate(-1160.127 -974.725)"/>
      <path id="Path_6573" data-name="Path 6573" d="M1173.086,995.867a.479.479,0,0,1-.479-.479v-4.166h-2.243v4.166a.479.479,0,0,1-.959,0v-4.645a.479.479,0,0,1,.479-.479h3.2a.479.479,0,0,1,.479.479v4.645A.479.479,0,0,1,1173.086,995.867Z" transform="translate(-1160.512 -975.369)"/>
    </g>
  </g>
</svg>
