<svg xmlns="http://www.w3.org/2000/svg" width="22" height="22" viewBox="0 0 22 22">
  <g id="profile" transform="translate(16 -955)">
    <rect id="Rectangle_10" data-name="Rectangle 10" width="22" height="22" transform="translate(-16 955)" fill="#fff"/>
    <g id="Profile-2" data-name="Profile" transform="translate(1702 353.844)">
      <path id="Path_6575" data-name="Path 6575" d="M6.4-.273h6.929A5.871,5.871,0,0,1,19,5.333v.889c0,.982-.49,2.225-1.472,2.225H2.2C1.216,8.447.513,7.2.513,6.222.513,2.786,2.962-.273,6.4-.273Z" transform="translate(-1717 613.78)" fill="#fff"/>
      <path id="Path_6576" data-name="Path 6576" d="M4.98.7A4.283,4.283,0,0,1,9.33,5.1,4.11,4.11,0,0,1,4.98,9.274,4.39,4.39,0,0,1,.524,4.861,4.183,4.183,0,0,1,4.98.7Z" transform="translate(-1712 603.138)" fill="#fff"/>
      <g id="Rectangle_470" data-name="Rectangle 470" transform="translate(-1717 612.968)">
        <path id="Path_5076" data-name="Path 5076" d="M7862.767,946.388h-15.314a2.092,2.092,0,0,1-2.162-2.009v-1.008c0-3.719,3.3-6.743,7.36-6.743h4.918c4.06,0,7.36,3.025,7.36,6.743v1.008A2.092,2.092,0,0,1,7862.767,946.388Zm-10.116-8.86c-3.562,0-6.459,2.621-6.459,5.843v1.008a1.193,1.193,0,0,0,1.261,1.108h15.314a1.193,1.193,0,0,0,1.262-1.108v-1.008c0-3.221-2.9-5.843-6.46-5.843Z" transform="translate(-7845.291 -936.628)" fill="#1d1d1d"/>
      </g>
      <g id="Rectangle_471" data-name="Rectangle 471" transform="translate(-1712.087 603.157)">
        <path id="Path_5077" data-name="Path 5077" d="M7855.529,933.163a4.906,4.906,0,1,1,4.905-4.906A4.906,4.906,0,0,1,7855.529,933.163Zm0-8.93a4.025,4.025,0,1,0,4.025,4.025A4.025,4.025,0,0,0,7855.529,924.233Z" transform="translate(-7850.623 -923.352)" fill="#1d1d1d"/>
      </g>
    </g>
  </g>
</svg>
